<svg xmlns="http://www.w3.org/2000/svg" id="pcb-stackup_bottom" fill-rule="evenodd" stroke-width="0" stroke-linecap="round" stroke-linejoin="round" xmlns:xlink="http://www.w3.org/1999/xlink" clip-rule="evenodd" viewBox="381 4936 26202 15000"><defs><style>.pcb-stackup_fr4 {color: #4D542C;} .pcb-stackup_cu {color: lightgrey;} .pcb-stackup_cf {color: goldenrod;} .pcb-stackup_sm {color: #2E0051; opacity: 0.9;} .pcb-stackup_ss {color: white;} .pcb-stackup_sp {color: #000000; opacity: 0;} .pcb-stackup_out {color: black;}</style><circle id="BkejgCvg3l_pad-10" r="940"/><path id="BkejgCvg3l_pad-11" d="M-266.5-774.5h533v1549h-533z"/><path id="BkejgCvg3l_pad-12" d="M-508-698.5H508v1397H-508z"/><path id="BkejgCvg3l_pad-13" d="M-698.5-508h1397V508h-1397z"/><path id="BkejgCvg3l_pad-14" d="M-559-724H559V724H-559z"/><circle id="BkejgCvg3l_pad-16" r="343"/><circle id="BkejgCvg3l_pad-10" r="940"/><path id="BkejgCvg3l_pad-11" d="M-266.5-774.5h533v1549h-533z"/><path id="BkejgCvg3l_pad-12" d="M-508-698.5H508v1397H-508z"/><path id="BkejgCvg3l_pad-13" d="M-698.5-508h1397V508h-1397z"/><path id="BkejgCvg3l_pad-14" d="M-559-724H559V724H-559z"/><circle id="BkejgCvg3l_pad-16" r="343"/><circle id="BkejgCvg3l_pad-10" r="940"/><path id="BkejgCvg3l_pad-11" d="M-266.5-774.5h533v1549h-533z"/><path id="BkejgCvg3l_pad-12" d="M-508-698.5H508v1397H-508z"/><path id="BkejgCvg3l_pad-13" d="M-698.5-508h1397V508h-1397z"/><path id="BkejgCvg3l_pad-14" d="M-559-724H559V724H-559z"/><circle id="BkejgCvg3l_pad-16" r="343"/><circle id="BkejgCvg3l_pad-10" r="940"/><path id="BkejgCvg3l_pad-11" d="M-266.5-774.5h533v1549h-533z"/><path id="BkejgCvg3l_pad-12" d="M-508-698.5H508v1397H-508z"/><path id="BkejgCvg3l_pad-13" d="M-698.5-508h1397V508h-1397z"/><path id="BkejgCvg3l_pad-14" d="M-559-724H559V724H-559z"/><circle id="BkejgCvg3l_pad-16" r="343"/><circle id="SJzig0De3g_pad-10" r="1076"/><circle id="SJzig0De3g_pad-11" r="1016"/><path id="SJzig0De3g_pad-12" d="M-343-851h686V851h-686z"/><path id="SJzig0De3g_pad-13" d="M-584-774.5H584v1549H-584z"/><path id="SJzig0De3g_pad-14" d="M-774.5-584h1549V584h-1549z"/><path id="SJzig0De3g_pad-15" d="M-635-800H635V800H-635z"/><circle id="SJzig0De3g_pad-16" r="419"/><circle id="BkejgCvg3l_pad-10" r="940"/><path id="BkejgCvg3l_pad-11" d="M-266.5-774.5h533v1549h-533z"/><path id="BkejgCvg3l_pad-12" d="M-508-698.5H508v1397H-508z"/><path id="BkejgCvg3l_pad-13" d="M-698.5-508h1397V508h-1397z"/><path id="BkejgCvg3l_pad-14" d="M-559-724H559V724H-559z"/><circle id="BkejgCvg3l_pad-16" r="343"/><circle id="BkejgCvg3l_pad-10" r="940"/><path id="BkejgCvg3l_pad-11" d="M-266.5-774.5h533v1549h-533z"/><path id="BkejgCvg3l_pad-12" d="M-508-698.5H508v1397H-508z"/><path id="BkejgCvg3l_pad-13" d="M-698.5-508h1397V508h-1397z"/><path id="BkejgCvg3l_pad-14" d="M-559-724H559V724H-559z"/><circle id="BkejgCvg3l_pad-16" r="343"/><circle id="BkejgCvg3l_pad-10" r="940"/><path id="BkejgCvg3l_pad-11" d="M-266.5-774.5h533v1549h-533z"/><path id="BkejgCvg3l_pad-12" d="M-508-698.5H508v1397H-508z"/><path id="BkejgCvg3l_pad-13" d="M-698.5-508h1397V508h-1397z"/><path id="BkejgCvg3l_pad-14" d="M-559-724H559V724H-559z"/><circle id="BkejgCvg3l_pad-16" r="343"/><circle id="BkejgCvg3l_pad-10" r="940"/><path id="BkejgCvg3l_pad-11" d="M-266.5-774.5h533v1549h-533z"/><path id="BkejgCvg3l_pad-12" d="M-508-698.5H508v1397H-508z"/><path id="BkejgCvg3l_pad-13" d="M-698.5-508h1397V508h-1397z"/><path id="BkejgCvg3l_pad-14" d="M-559-724H559V724H-559z"/><circle id="BkejgCvg3l_pad-16" r="343"/><circle id="SJzig0De3g_pad-10" r="1076"/><circle id="SJzig0De3g_pad-11" r="1016"/><path id="SJzig0De3g_pad-12" d="M-343-851h686V851h-686z"/><path id="SJzig0De3g_pad-13" d="M-584-774.5H584v1549H-584z"/><path id="SJzig0De3g_pad-14" d="M-774.5-584h1549V584h-1549z"/><path id="SJzig0De3g_pad-15" d="M-635-800H635V800H-635z"/><circle id="SJzig0De3g_pad-16" r="419"/><circle id="rkXoxCDl3x_pad-1" r="165.1"/><circle id="rkXoxCDl3x_pad-2" r="508"/><circle id="rkXoxCDl3x_pad-3" r="1000"/><circle id="BkejgCvg3l_pad-10" r="940"/><path id="BkejgCvg3l_pad-11" d="M-266.5-774.5h533v1549h-533z"/><path id="BkejgCvg3l_pad-12" d="M-508-698.5H508v1397H-508z"/><path id="BkejgCvg3l_pad-13" d="M-698.5-508h1397V508h-1397z"/><path id="BkejgCvg3l_pad-14" d="M-559-724H559V724H-559z"/><circle id="BkejgCvg3l_pad-16" r="343"/><circle id="BkejgCvg3l_pad-10" r="940"/><path id="BkejgCvg3l_pad-11" d="M-266.5-774.5h533v1549h-533z"/><path id="BkejgCvg3l_pad-12" d="M-508-698.5H508v1397H-508z"/><path id="BkejgCvg3l_pad-13" d="M-698.5-508h1397V508h-1397z"/><path id="BkejgCvg3l_pad-14" d="M-559-724H559V724H-559z"/><circle id="BkejgCvg3l_pad-16" r="343"/><circle id="BkejgCvg3l_pad-10" r="940"/><path id="BkejgCvg3l_pad-11" d="M-266.5-774.5h533v1549h-533z"/><path id="BkejgCvg3l_pad-12" d="M-508-698.5H508v1397H-508z"/><path id="BkejgCvg3l_pad-13" d="M-698.5-508h1397V508h-1397z"/><path id="BkejgCvg3l_pad-14" d="M-559-724H559V724H-559z"/><circle id="BkejgCvg3l_pad-16" r="343"/><circle id="BkejgCvg3l_pad-10" r="940"/><path id="BkejgCvg3l_pad-11" d="M-266.5-774.5h533v1549h-533z"/><path id="BkejgCvg3l_pad-12" d="M-508-698.5H508v1397H-508z"/><path id="BkejgCvg3l_pad-13" d="M-698.5-508h1397V508h-1397z"/><path id="BkejgCvg3l_pad-14" d="M-559-724H559V724H-559z"/><circle id="BkejgCvg3l_pad-16" r="343"/><circle id="SJzig0De3g_pad-10" r="1076"/><circle id="SJzig0De3g_pad-11" r="1016"/><path id="SJzig0De3g_pad-12" d="M-343-851h686V851h-686z"/><path id="SJzig0De3g_pad-13" d="M-584-774.5H584v1549H-584z"/><path id="SJzig0De3g_pad-14" d="M-774.5-584h1549V584h-1549z"/><path id="SJzig0De3g_pad-15" d="M-635-800H635V800H-635z"/><circle id="SJzig0De3g_pad-16" r="419"/><circle id="BkejgCvg3l_pad-10" r="940"/><path id="BkejgCvg3l_pad-11" d="M-266.5-774.5h533v1549h-533z"/><path id="BkejgCvg3l_pad-12" d="M-508-698.5H508v1397H-508z"/><path id="BkejgCvg3l_pad-13" d="M-698.5-508h1397V508h-1397z"/><path id="BkejgCvg3l_pad-14" d="M-559-724H559V724H-559z"/><circle id="BkejgCvg3l_pad-16" r="343"/><circle id="BkejgCvg3l_pad-10" r="940"/><path id="BkejgCvg3l_pad-11" d="M-266.5-774.5h533v1549h-533z"/><path id="BkejgCvg3l_pad-12" d="M-508-698.5H508v1397H-508z"/><path id="BkejgCvg3l_pad-13" d="M-698.5-508h1397V508h-1397z"/><path id="BkejgCvg3l_pad-14" d="M-559-724H559V724H-559z"/><circle id="BkejgCvg3l_pad-16" r="343"/><circle id="BkejgCvg3l_pad-10" r="940"/><path id="BkejgCvg3l_pad-11" d="M-266.5-774.5h533v1549h-533z"/><path id="BkejgCvg3l_pad-12" d="M-508-698.5H508v1397H-508z"/><path id="BkejgCvg3l_pad-13" d="M-698.5-508h1397V508h-1397z"/><path id="BkejgCvg3l_pad-14" d="M-559-724H559V724H-559z"/><circle id="BkejgCvg3l_pad-16" r="343"/><circle id="BkejgCvg3l_pad-10" r="940"/><path id="BkejgCvg3l_pad-11" d="M-266.5-774.5h533v1549h-533z"/><path id="BkejgCvg3l_pad-12" d="M-508-698.5H508v1397H-508z"/><path id="BkejgCvg3l_pad-13" d="M-698.5-508h1397V508h-1397z"/><path id="BkejgCvg3l_pad-14" d="M-559-724H559V724H-559z"/><circle id="BkejgCvg3l_pad-16" r="343"/><circle id="SJzig0De3g_pad-10" r="1076"/><circle id="SJzig0De3g_pad-11" r="1016"/><path id="SJzig0De3g_pad-12" d="M-343-851h686V851h-686z"/><path id="SJzig0De3g_pad-13" d="M-584-774.5H584v1549H-584z"/><path id="SJzig0De3g_pad-14" d="M-774.5-584h1549V584h-1549z"/><path id="SJzig0De3g_pad-15" d="M-635-800H635V800H-635z"/><circle id="SJzig0De3g_pad-16" r="419"/><circle id="rkXoxCDl3x_pad-1" r="165.1"/><circle id="rkXoxCDl3x_pad-2" r="508"/><circle id="rkXoxCDl3x_pad-3" r="1000"/><circle id="BkejgCvg3l_pad-10" r="940"/><path id="BkejgCvg3l_pad-11" d="M-266.5-774.5h533v1549h-533z"/><path id="BkejgCvg3l_pad-12" d="M-508-698.5H508v1397H-508z"/><path id="BkejgCvg3l_pad-13" d="M-698.5-508h1397V508h-1397z"/><path id="BkejgCvg3l_pad-14" d="M-559-724H559V724H-559z"/><circle id="BkejgCvg3l_pad-16" r="343"/><circle id="BkejgCvg3l_pad-10" r="940"/><path id="BkejgCvg3l_pad-11" d="M-266.5-774.5h533v1549h-533z"/><path id="BkejgCvg3l_pad-12" d="M-508-698.5H508v1397H-508z"/><path id="BkejgCvg3l_pad-13" d="M-698.5-508h1397V508h-1397z"/><path id="BkejgCvg3l_pad-14" d="M-559-724H559V724H-559z"/><circle id="BkejgCvg3l_pad-16" r="343"/><circle id="BkejgCvg3l_pad-10" r="940"/><path id="BkejgCvg3l_pad-11" d="M-266.5-774.5h533v1549h-533z"/><path id="BkejgCvg3l_pad-12" d="M-508-698.5H508v1397H-508z"/><path id="BkejgCvg3l_pad-13" d="M-698.5-508h1397V508h-1397z"/><path id="BkejgCvg3l_pad-14" d="M-559-724H559V724H-559z"/><circle id="BkejgCvg3l_pad-16" r="343"/><circle id="BkejgCvg3l_pad-10" r="940"/><path id="BkejgCvg3l_pad-11" d="M-266.5-774.5h533v1549h-533z"/><path id="BkejgCvg3l_pad-12" d="M-508-698.5H508v1397H-508z"/><path id="BkejgCvg3l_pad-13" d="M-698.5-508h1397V508h-1397z"/><path id="BkejgCvg3l_pad-14" d="M-559-724H559V724H-559z"/><circle id="BkejgCvg3l_pad-16" r="343"/><circle id="SJzig0De3g_pad-10" r="1076"/><circle id="SJzig0De3g_pad-11" r="1016"/><path id="SJzig0De3g_pad-12" d="M-343-851h686V851h-686z"/><path id="SJzig0De3g_pad-13" d="M-584-774.5H584v1549H-584z"/><path id="SJzig0De3g_pad-14" d="M-774.5-584h1549V584h-1549z"/><path id="SJzig0De3g_pad-15" d="M-635-800H635V800H-635z"/><circle id="SJzig0De3g_pad-16" r="419"/><circle id="BkejgCvg3l_pad-10" r="940"/><path id="BkejgCvg3l_pad-11" d="M-266.5-774.5h533v1549h-533z"/><path id="BkejgCvg3l_pad-12" d="M-508-698.5H508v1397H-508z"/><path id="BkejgCvg3l_pad-13" d="M-698.5-508h1397V508h-1397z"/><path id="BkejgCvg3l_pad-14" d="M-559-724H559V724H-559z"/><circle id="BkejgCvg3l_pad-16" r="343"/><circle id="BkejgCvg3l_pad-10" r="940"/><path id="BkejgCvg3l_pad-11" d="M-266.5-774.5h533v1549h-533z"/><path id="BkejgCvg3l_pad-12" d="M-508-698.5H508v1397H-508z"/><path id="BkejgCvg3l_pad-13" d="M-698.5-508h1397V508h-1397z"/><path id="BkejgCvg3l_pad-14" d="M-559-724H559V724H-559z"/><circle id="BkejgCvg3l_pad-16" r="343"/><circle id="BkejgCvg3l_pad-10" r="940"/><path id="BkejgCvg3l_pad-11" d="M-266.5-774.5h533v1549h-533z"/><path id="BkejgCvg3l_pad-12" d="M-508-698.5H508v1397H-508z"/><path id="BkejgCvg3l_pad-13" d="M-698.5-508h1397V508h-1397z"/><path id="BkejgCvg3l_pad-14" d="M-559-724H559V724H-559z"/><circle id="BkejgCvg3l_pad-16" r="343"/><circle id="BkejgCvg3l_pad-10" r="940"/><path id="BkejgCvg3l_pad-11" d="M-266.5-774.5h533v1549h-533z"/><path id="BkejgCvg3l_pad-12" d="M-508-698.5H508v1397H-508z"/><path id="BkejgCvg3l_pad-13" d="M-698.5-508h1397V508h-1397z"/><path id="BkejgCvg3l_pad-14" d="M-559-724H559V724H-559z"/><circle id="BkejgCvg3l_pad-16" r="343"/><circle id="SJzig0De3g_pad-10" r="1076"/><circle id="SJzig0De3g_pad-11" r="1016"/><path id="SJzig0De3g_pad-12" d="M-343-851h686V851h-686z"/><path id="SJzig0De3g_pad-13" d="M-584-774.5H584v1549H-584z"/><path id="SJzig0De3g_pad-14" d="M-774.5-584h1549V584h-1549z"/><path id="SJzig0De3g_pad-15" d="M-635-800H635V800H-635z"/><circle id="SJzig0De3g_pad-16" r="419"/><circle id="rkXoxCDl3x_pad-1" r="165.1"/><circle id="rkXoxCDl3x_pad-2" r="508"/><circle id="rkXoxCDl3x_pad-3" r="1000"/><circle id="BkejgCvg3l_pad-10" r="940"/><path id="BkejgCvg3l_pad-11" d="M-266.5-774.5h533v1549h-533z"/><path id="BkejgCvg3l_pad-12" d="M-508-698.5H508v1397H-508z"/><path id="BkejgCvg3l_pad-13" d="M-698.5-508h1397V508h-1397z"/><path id="BkejgCvg3l_pad-14" d="M-559-724H559V724H-559z"/><circle id="BkejgCvg3l_pad-16" r="343"/><circle id="BkejgCvg3l_pad-10" r="940"/><path id="BkejgCvg3l_pad-11" d="M-266.5-774.5h533v1549h-533z"/><path id="BkejgCvg3l_pad-12" d="M-508-698.5H508v1397H-508z"/><path id="BkejgCvg3l_pad-13" d="M-698.5-508h1397V508h-1397z"/><path id="BkejgCvg3l_pad-14" d="M-559-724H559V724H-559z"/><circle id="BkejgCvg3l_pad-16" r="343"/><circle id="BkejgCvg3l_pad-10" r="940"/><path id="BkejgCvg3l_pad-11" d="M-266.5-774.5h533v1549h-533z"/><path id="BkejgCvg3l_pad-12" d="M-508-698.5H508v1397H-508z"/><path id="BkejgCvg3l_pad-13" d="M-698.5-508h1397V508h-1397z"/><path id="BkejgCvg3l_pad-14" d="M-559-724H559V724H-559z"/><circle id="BkejgCvg3l_pad-16" r="343"/><circle id="BkejgCvg3l_pad-10" r="940"/><path id="BkejgCvg3l_pad-11" d="M-266.5-774.5h533v1549h-533z"/><path id="BkejgCvg3l_pad-12" d="M-508-698.5H508v1397H-508z"/><path id="BkejgCvg3l_pad-13" d="M-698.5-508h1397V508h-1397z"/><path id="BkejgCvg3l_pad-14" d="M-559-724H559V724H-559z"/><circle id="BkejgCvg3l_pad-16" r="343"/><circle id="SJzig0De3g_pad-10" r="1076"/><circle id="SJzig0De3g_pad-11" r="1016"/><path id="SJzig0De3g_pad-12" d="M-343-851h686V851h-686z"/><path id="SJzig0De3g_pad-13" d="M-584-774.5H584v1549H-584z"/><path id="SJzig0De3g_pad-14" d="M-774.5-584h1549V584h-1549z"/><path id="SJzig0De3g_pad-15" d="M-635-800H635V800H-635z"/><circle id="SJzig0De3g_pad-16" r="419"/><circle id="BkejgCvg3l_pad-10" r="940"/><path id="BkejgCvg3l_pad-11" d="M-266.5-774.5h533v1549h-533z"/><path id="BkejgCvg3l_pad-12" d="M-508-698.5H508v1397H-508z"/><path id="BkejgCvg3l_pad-13" d="M-698.5-508h1397V508h-1397z"/><path id="BkejgCvg3l_pad-14" d="M-559-724H559V724H-559z"/><circle id="BkejgCvg3l_pad-16" r="343"/><circle id="BkejgCvg3l_pad-10" r="940"/><path id="BkejgCvg3l_pad-11" d="M-266.5-774.5h533v1549h-533z"/><path id="BkejgCvg3l_pad-12" d="M-508-698.5H508v1397H-508z"/><path id="BkejgCvg3l_pad-13" d="M-698.5-508h1397V508h-1397z"/><path id="BkejgCvg3l_pad-14" d="M-559-724H559V724H-559z"/><circle id="BkejgCvg3l_pad-16" r="343"/><circle id="BkejgCvg3l_pad-10" r="940"/><path id="BkejgCvg3l_pad-11" d="M-266.5-774.5h533v1549h-533z"/><path id="BkejgCvg3l_pad-12" d="M-508-698.5H508v1397H-508z"/><path id="BkejgCvg3l_pad-13" d="M-698.5-508h1397V508h-1397z"/><path id="BkejgCvg3l_pad-14" d="M-559-724H559V724H-559z"/><circle id="BkejgCvg3l_pad-16" r="343"/><circle id="BkejgCvg3l_pad-10" r="940"/><path id="BkejgCvg3l_pad-11" d="M-266.5-774.5h533v1549h-533z"/><path id="BkejgCvg3l_pad-12" d="M-508-698.5H508v1397H-508z"/><path id="BkejgCvg3l_pad-13" d="M-698.5-508h1397V508h-1397z"/><path id="BkejgCvg3l_pad-14" d="M-559-724H559V724H-559z"/><circle id="BkejgCvg3l_pad-16" r="343"/><circle id="SJzig0De3g_pad-10" r="1076"/><circle id="SJzig0De3g_pad-11" r="1016"/><path id="SJzig0De3g_pad-12" d="M-343-851h686V851h-686z"/><path id="SJzig0De3g_pad-13" d="M-584-774.5H584v1549H-584z"/><path id="SJzig0De3g_pad-14" d="M-774.5-584h1549V584h-1549z"/><path id="SJzig0De3g_pad-15" d="M-635-800H635V800H-635z"/><circle id="SJzig0De3g_pad-16" r="419"/><circle id="rkXoxCDl3x_pad-1" r="165.1"/><circle id="rkXoxCDl3x_pad-2" r="508"/><circle id="rkXoxCDl3x_pad-3" r="1000"/><g id="pcb-stackup_bottom_cu"><use x="24377" y="10141" xlink:href="#BkejgCvg3l_pad-10"/><use x="21837" y="10141" xlink:href="#BkejgCvg3l_pad-10"/><use x="24377" y="12681" xlink:href="#BkejgCvg3l_pad-10"/><use x="21837" y="12681" xlink:href="#BkejgCvg3l_pad-10"/><use x="24377" y="15221" xlink:href="#BkejgCvg3l_pad-10"/><use x="21837" y="15221" xlink:href="#BkejgCvg3l_pad-10"/><use x="11592" y="18214" xlink:href="#BkejgCvg3l_pad-10"/><use x="14132" y="18214" xlink:href="#BkejgCvg3l_pad-10"/><use x="16672" y="18214" xlink:href="#BkejgCvg3l_pad-10"/><use x="19212" y="18214" xlink:href="#BkejgCvg3l_pad-10"/><use x="11415" y="7445" xlink:href="#BkejgCvg3l_pad-10"/><use x="13955" y="7445" xlink:href="#BkejgCvg3l_pad-10"/><use x="16495" y="7445" xlink:href="#BkejgCvg3l_pad-10"/><use x="19035" y="7445" xlink:href="#BkejgCvg3l_pad-10"/><use x="3378" y="15403" xlink:href="#BkejgCvg3l_pad-11"/><use x="4648" y="15403" xlink:href="#BkejgCvg3l_pad-11"/><use x="5918" y="15403" xlink:href="#BkejgCvg3l_pad-11"/><use x="7188" y="15403" xlink:href="#BkejgCvg3l_pad-11"/><use x="7188" y="7986" xlink:href="#BkejgCvg3l_pad-11"/><use x="5918" y="7986" xlink:href="#BkejgCvg3l_pad-11"/><use x="4648" y="7986" xlink:href="#BkejgCvg3l_pad-11"/><use x="3378" y="7986" xlink:href="#BkejgCvg3l_pad-11"/><use x="13841" y="10736" xlink:href="#BkejgCvg3l_pad-12"/><use x="15721" y="10736" xlink:href="#BkejgCvg3l_pad-12"/><use x="18681" y="13776" xlink:href="#BkejgCvg3l_pad-13"/><use x="18681" y="11897" xlink:href="#BkejgCvg3l_pad-13"/><use x="15395" y="15136" xlink:href="#BkejgCvg3l_pad-14"/><use x="13567" y="15136" xlink:href="#BkejgCvg3l_pad-14"/><path fill="none" stroke-width="152" d="M7249 7851h3810l305-305m-4115 305l-61 135m4176-440l51-101m10312 5131h-762l-3658-3658h-4419l-1473-1473m10312 5131l110 105M6030 7851v-609l1371-1372h12650m4267 4267l-3048-3048-1219-1219M6030 7851l-112 135m18400 2151l59 4M13955 7546h914l1067 1067h3810l1524-1524m-7315 356v101m-9449 458v2438l-457 457v5334l304 305h610l457-457v-1677l4725-4724h6096l609 610v3200l3048 3048h2286l915-914v-1677l1219-1219M4648 7986l-142 18m19812 4724l59-47M4658 15319v-4572l1981-1981V7089l915-914h10211l1270 1270M4658 15319l-10 84m9154-4656H9992l-3962 3962v610l-112 84m13218 2811v-1066l-4572-4572h-457l-305-305v-1524m5334 7467h76m-5371-7478l-39 11m3258 1067h1619l2 83M3439 15319v-915l305-304V9070l305-304V7089l1524-1524h14935l2548 2548h2367M3439 15319l-61 84m10272 2354v-2591m0 2591l457 457m-457-3048l-83-30m540 3078h25m-6883-2743h914l610 610h4877m-6401-610l-61-68m11643-1608h2439l152 152h915l762-762v-1676l-1220-1219m-3048 3505l-150-19m3198-3486l-42-149m-6511 4873l-1371-1372H7554l-915 915v1676l1982 1981h2971m3803-3078l-69-122M3287 8004v6096l-458 457v1676l610 610h2591l609-610M3378 7986l-91 18m5791 7467v-762l457-457m4877-2286l1219-1219 90-11"/><use x="17060" y="11814" xlink:href="#BkejgCvg3l_pad-16"/><use x="25423" y="8113" xlink:href="#BkejgCvg3l_pad-16"/><use x="9078" y="15471" xlink:href="#BkejgCvg3l_pad-16"/><use x="9535" y="14252" xlink:href="#BkejgCvg3l_pad-16"/><use x="14412" y="11966" xlink:href="#BkejgCvg3l_pad-16"/></g><g id="pcb-stackup_bottom_ss"><path fill="none" stroke-width="51" d="M8356 10512h373l187 186-187 187h-373m280 0v-373m-280 748h560m0 186v-373m0 748h-560m560-187v373m-187 189v93h-373m0-93v186m560-93h93m-653 281h373v280l-93 93h-280m373 188h-279l-94 93v280m373 0h-466l-93-93v-93m652 375l94 93v186l-94 93h-93l-93-93-93 93h-93l-94-93v-186l94-93h93l93 93 93-93h93m-186 93v186m280 655v-373h-280l93 186v93l-93 94h-186l-94-94v-186l94-93m14181-8142v-650h-325l-108 108v433l108 109h325m-645-650v108h-108v-108h108m-967 0v650l-216-217-217 217v-650m-319 433h-217l-108-108v-325h325l108 108-108 108h-325m-212-216v433m0-217l-216 217h-109m-212 217v-650m-325 0l325 216-325 217m-320 0h-217l-108-108v-325h325l108 108-108 108h-325m-211-216v433m0-217l-217 217h-108m-213 0h-108v-433m108 0h-216m108 650v108m-430-325h-216l-108-108v-325h324l109 108-109 108h-324m-212-216v433h-325l-108-108v-325m-2411 7473h-94v-373m-93 0h187m-94 559v93m-374-186v-373l-93-93m0 373h186m-374-373h-279l-94 93 94 93h186l93 93-93 94h-280m-188 0v-280l-93-93h-280m0 373v-466l93-94h93"/><path fill="none" stroke-width="25" d="M17580 11349l93 93h-279m0-93v187m46 94h187l46 46v94l-46 46h-187l-46-46v-94l46-46 187 186m46 94h-279m93 0l186 187m-139-140l-140 140m0 375h279v140l-46 46h-93l-47-46v-140m0 93l-93 93m0 234v-93l46-47h94l46 47v93l-46 47h-47v-187m-93 281v140l46 46 47-46v-93l47-47 46 47v139m0 95v46h-186m0-46v93m279-47h47m-326 141v140l46 46 47-46v-94l47-46 46 46v140m47 141h-187l-46 47m186 0v-94m-186 234v93l46 47h94l46-47v-93l-46-46h-94l-46 46m0 234h186m-93 0l93 93v47m-1278-2558l-93 93v-280m93 0h-186m-94 47v186l-47 47h-93l-47-47v-186l47-47h93l47 47-187 186m-94 47v-280m0 93l-186 187m139-140l-139-140m-375 0v280h-140l-47-47v-93l47-47h140m-94 0l-93-93m-234 0h93l47 47v93l-47 47h-93l-46-47v-47h186m-281-93h-139l-47 47 47 46h93l46 47-46 47h-140m-94 0h-47v-187m-46 0h93m-47 280v47m-140-327h-140l-47 47 47 46h93l47 47-47 47h-140m-141 46v-186l-46-47m0 187h93m-234-187h-93l-47 47v93l47 47h93l47-47v-93l-47-47m-234 0v187m0-94l-93 94h-47m2856 2118v47h-46v-47h46m-140 187l-93 93v-280m93 0h-186m-95 187v-140l-46-47h-140v187m-94-187v280h-187m93-140h94m-748 93l47 47h93l46-47v-186l-46-47h-93l-47 47m-141 140h-93l-47-47v-140h140l47 47-47 46h-140m-94-186v280h-140l-46-47v-93l46-47h140m-327 187h-93l-47-47v-140h140l46 47-46 46h-140m-281 94h140l47-47v-93l-47-47h-140m-94 187h-47v-187m-46 0h93m-47 280v46m-187-93v-186l-46-47m0 187h93m-234-187h-93l-47 47v93l47 47h93l47-47v-93l-47-47m-234 0v187m0-94l-93 94h-47"/><path fill="none" stroke-width="76" d="M9343 19257v-362l-121-121h-362v483m-737 242v-725h363l120 121v242l-120 120h-363m-253 0l-483-483m483 0l-483 483m-254-483h-362l-121 121 121 121h241l121 121-121 120h-362m-254-483v121h-120v-121h120m-368 0v483h-121l-120-120v-363m0 363l-121 120-121-120v-363m-616 0h242l120 121v242l-120 120h-242l-120-120v-121h482m-3347-8125h-771l-154 154v309l154 154h771m0 304h-925v462l154 155h617l154-155v-462m0 921l-925 616m0-616l925 616m-154 921l154-154v-308l-154-154h-155l-154 154v308l-154 154h-154l-154-154v-308l154-154m15970-1080v628l-314 313-313-313v-628m0 471h627m-936 157v-628m0 314l-313 314h-157m-936 313v-941h470l157 157v314l-157 157h-470m-309 0v-471l-157-157h-470v628M2735 15407l-797 796m0-796l797 796m-399 0v-796m-398 398h797m0-398l-797 796m0-796l797 796m-399 0v-796m-398 398h797"/><path fill="none" stroke-width="203" d="M25982 10776V9506"/><path fill="none" stroke-width="152" d="M5410 14387h-254m1270 0h254m1016 0h254M6680 9002h-254m-1016 0h-254m-1016 0h-254m-1016 0h-254m5334 5385V9002h-254m-5080 0v5385h254m1016 0h254m-1524-2387l34-2 34-6 33-9 31-13 30-17 28-20 26-22 22-26 20-28 17-30 13-31 9-33 6-34 2-34-2-34-6-34-9-33-13-31-17-30-20-28-22-26-26-22-28-20-30-17-31-13-33-9-34-6-34-2 34 2 34 6 33 9 31 13 30 17 28 20 26 22 22 26 20 28 17 30 13 31 9 33 6 34 2 34-2 34-6 34-9 33-13 31-17 30-20 28-22 26-26 22-28 20-30 17-31 13-33 9-34 6-34 2m12063-552h204m0-1423h-204m4713 2710v203m-1422 0v-203"/></g><g id="pcb-stackup_bottom_sm"><use x="2581" y="18136" xlink:href="#SJzig0De3g_pad-10"/><use x="23581" y="18136" xlink:href="#SJzig0De3g_pad-10"/><use x="23781" y="6736" xlink:href="#SJzig0De3g_pad-10"/><use x="24377" y="10141" xlink:href="#SJzig0De3g_pad-11"/><use x="21837" y="10141" xlink:href="#SJzig0De3g_pad-11"/><use x="24377" y="12681" xlink:href="#SJzig0De3g_pad-11"/><use x="21837" y="12681" xlink:href="#SJzig0De3g_pad-11"/><use x="24377" y="15221" xlink:href="#SJzig0De3g_pad-11"/><use x="21837" y="15221" xlink:href="#SJzig0De3g_pad-11"/><use x="11592" y="18214" xlink:href="#SJzig0De3g_pad-11"/><use x="14132" y="18214" xlink:href="#SJzig0De3g_pad-11"/><use x="16672" y="18214" xlink:href="#SJzig0De3g_pad-11"/><use x="19212" y="18214" xlink:href="#SJzig0De3g_pad-11"/><use x="11415" y="7445" xlink:href="#SJzig0De3g_pad-11"/><use x="13955" y="7445" xlink:href="#SJzig0De3g_pad-11"/><use x="16495" y="7445" xlink:href="#SJzig0De3g_pad-11"/><use x="19035" y="7445" xlink:href="#SJzig0De3g_pad-11"/><use x="3378" y="15403" xlink:href="#SJzig0De3g_pad-12"/><use x="4648" y="15403" xlink:href="#SJzig0De3g_pad-12"/><use x="5918" y="15403" xlink:href="#SJzig0De3g_pad-12"/><use x="7188" y="15403" xlink:href="#SJzig0De3g_pad-12"/><use x="7188" y="7986" xlink:href="#SJzig0De3g_pad-12"/><use x="5918" y="7986" xlink:href="#SJzig0De3g_pad-12"/><use x="4648" y="7986" xlink:href="#SJzig0De3g_pad-12"/><use x="3378" y="7986" xlink:href="#SJzig0De3g_pad-12"/><use x="13841" y="10736" xlink:href="#SJzig0De3g_pad-13"/><use x="15721" y="10736" xlink:href="#SJzig0De3g_pad-13"/><use x="18681" y="13776" xlink:href="#SJzig0De3g_pad-14"/><use x="18681" y="11897" xlink:href="#SJzig0De3g_pad-14"/><use x="15395" y="15136" xlink:href="#SJzig0De3g_pad-15"/><use x="13567" y="15136" xlink:href="#SJzig0De3g_pad-15"/><use x="17060" y="11814" xlink:href="#SJzig0De3g_pad-16"/><use x="25423" y="8113" xlink:href="#SJzig0De3g_pad-16"/><use x="9078" y="15471" xlink:href="#SJzig0De3g_pad-16"/><use x="9535" y="14252" xlink:href="#SJzig0De3g_pad-16"/><use x="14412" y="11966" xlink:href="#SJzig0De3g_pad-16"/></g><g id="pcb-stackup_bottom_drl1"><use x="17060" y="11814" xlink:href="#rkXoxCDl3x_pad-1"/><use x="25423" y="8113" xlink:href="#rkXoxCDl3x_pad-1"/><use x="9078" y="15471" xlink:href="#rkXoxCDl3x_pad-1"/><use x="9535" y="14252" xlink:href="#rkXoxCDl3x_pad-1"/><use x="14412" y="11966" xlink:href="#rkXoxCDl3x_pad-1"/><use x="24377" y="10141" xlink:href="#rkXoxCDl3x_pad-2"/><use x="21837" y="10141" xlink:href="#rkXoxCDl3x_pad-2"/><use x="24377" y="12681" xlink:href="#rkXoxCDl3x_pad-2"/><use x="21837" y="12681" xlink:href="#rkXoxCDl3x_pad-2"/><use x="24377" y="15221" xlink:href="#rkXoxCDl3x_pad-2"/><use x="21837" y="15221" xlink:href="#rkXoxCDl3x_pad-2"/><use x="11592" y="18214" xlink:href="#rkXoxCDl3x_pad-2"/><use x="14132" y="18214" xlink:href="#rkXoxCDl3x_pad-2"/><use x="16672" y="18214" xlink:href="#rkXoxCDl3x_pad-2"/><use x="19212" y="18214" xlink:href="#rkXoxCDl3x_pad-2"/><use x="11415" y="7445" xlink:href="#rkXoxCDl3x_pad-2"/><use x="13955" y="7445" xlink:href="#rkXoxCDl3x_pad-2"/><use x="16495" y="7445" xlink:href="#rkXoxCDl3x_pad-2"/><use x="19035" y="7445" xlink:href="#rkXoxCDl3x_pad-2"/><use x="2581" y="18136" xlink:href="#rkXoxCDl3x_pad-3"/><use x="23581" y="18136" xlink:href="#rkXoxCDl3x_pad-3"/><use x="23781" y="6736" xlink:href="#rkXoxCDl3x_pad-3"/></g><clipPath id="pcb-stackup_bottom_out"><path fill="none" stroke-width="254" d="M26581 15536l1 130-3 130-7 130-10 129-15 129-19 129-22 128-26 127-30 126-34 126-38 124-41 123-45 122-49 121-52 118-56 118-60 115-63 114-66 112-69 109-73 108-77 105-79 103-82 100-86 98-88 96-91 92-94 90-96 87-99 84-102 81-104 78-106 75-109 71-111 68-112 65-115 61-116 58-118 54-120 51-121 47-122 43-124 40-125 36-126 32-127 28-127 25-128 20-129 17-130 13-129 9-130 5H2181L381 18136V4936h23000l113 5 112 9 112 13 111 17 111 20 110 25 110 28 108 32 107 35 106 40 104 42 103 47 101 49 99 54 98 56 95 60 94 63 91 66 89 70 86 72 84 75 82 78 79 81 75 83 73 86 70 89 67 90 64 93 61 95 57 98 54 99 50 100 48 103 43 104 40 105 36 107 33 108 29 109 25 110 22 110 17 112 14 112 10 112 7 113 2 112-2 113v7200M1581 18136l2 63 6 62 10 62 13 62 18 60 21 59 25 58 29 56 32 54 35 52 38 49 42 48 44 44 48 42 49 38 52 35 54 32 56 29 58 25 59 21 60 18 62 13 62 10 62 6 63 2 63-2 62-6 62-10 62-13 60-18 59-21 58-25 56-29 54-32 52-35 49-38 48-42 44-44 42-48 38-49 35-52 32-54 29-56 25-58 21-59 18-60 13-62 10-62 6-62 2-63-2-63-6-62-10-62-13-62-18-60-21-59-25-58-29-56-32-54-35-52-38-49-42-48-44-44-48-42-49-38-52-35-54-32-56-29-58-25-59-21-60-18-62-13-62-10-62-6-63-2-63 2-62 6-62 10-62 13-60 18-59 21-58 25-56 29-54 32-52 35-49 38-48 42-44 44-42 48-38 49-35 52-32 54-29 56-25 58-21 59-18 60-13 62-10 62-6 62-2 63m21000 0l2 63 6 62 10 62 13 62 18 60 21 59 25 58 29 56 32 54 35 52 38 49 42 48 44 44 48 42 49 38 52 35 54 32 56 29 58 25 59 21 60 18 62 13 62 10 62 6 63 2 63-2 62-6 62-10 62-13 60-18 59-21 58-25 56-29 54-32 52-35 49-38 48-42 44-44 42-48 38-49 35-52 32-54 29-56 25-58 21-59 18-60 13-62 10-62 6-62 2-63-2-63-6-62-10-62-13-62-18-60-21-59-25-58-29-56-32-54-35-52-38-49-42-48-44-44-48-42-49-38-52-35-54-32-56-29-58-25-59-21-60-18-62-13-62-10-62-6-63-2-63 2-62 6-62 10-62 13-60 18-59 21-58 25-56 29-54 32-52 35-49 38-48 42-44 44-42 48-38 49-35 52-32 54-29 56-25 58-21 59-18 60-13 62-10 62-6 62-2 63m200-11400l2 63 6 62 10 62 13 62 18 60 21 59 25 58 29 56 32 54 35 52 38 49 42 48 44 44 48 42 49 38 52 35 54 32 56 29 58 25 59 21 60 18 62 13 62 10 62 6 63 2 63-2 62-6 62-10 62-13 60-18 59-21 58-25 56-29 54-32 52-35 49-38 48-42 44-44 42-48 38-49 35-52 32-54 29-56 25-58 21-59 18-60 13-62 10-62 6-62 2-63-2-63-6-62-10-62-13-62-18-60-21-59-25-58-29-56-32-54-35-52-38-49-42-48-44-44-48-42-49-38-52-35-54-32-56-29-58-25-59-21-60-18-62-13-62-10-62-6-63-2-63 2-62 6-62 10-62 13-60 18-59 21-58 25-56 29-54 32-52 35-49 38-48 42-44 44-42 48-38 49-35 52-32 54-29 56-25 58-21 59-18 60-13 62-10 62-6 62-2 63"/></clipPath><mask id="pcb-stackup_bottom_mech-mask"><g stroke="#000"><path fill="#fff" d="M381 4936h26202v15000H381z"/><use xlink:href="#pcb-stackup_bottom_drl1"/><use xlink:href="#pcb-stackup_bottom_drl2"/></g></mask><mask id="pcb-stackup_bottom_cf-mask"><g fill="#fff" stroke="#fff"><use xlink:href="#pcb-stackup_bottom_sm"/></g></mask><mask id="pcb-stackup_bottom_sm-mask"><g stroke="#000"><path fill="#fff" d="M381 4936h26202v15000H381z"/><use xlink:href="#pcb-stackup_bottom_sm"/></g></mask></defs><g><g mask="url(#pcb-stackup_bottom_mech-mask)" clip-path="url(#pcb-stackup_bottom_out)" transform="rotate(180 13482 12436)"><path fill="currentColor" d="M381 4936h26202v15000H381z" class="pcb-stackup_fr4"/><use fill="currentColor" stroke="currentColor" xlink:href="#pcb-stackup_bottom_cu" class="pcb-stackup_cu"/><use fill="currentColor" stroke="currentColor" xlink:href="#pcb-stackup_bottom_cu" class="pcb-stackup_cf" mask="url(#pcb-stackup_bottom_cf-mask)"/><g mask="url(#pcb-stackup_bottom_sm-mask)"><path fill="currentColor" d="M381 4936h26202v15000H381z" class="pcb-stackup_sm"/><use fill="currentColor" stroke="currentColor" xlink:href="#pcb-stackup_bottom_ss" class="pcb-stackup_ss"/></g></g></g></svg>