<svg xmlns="http://www.w3.org/2000/svg" id="pcb-stackup_top" fill-rule="evenodd" stroke-width="0" stroke-linecap="round" stroke-linejoin="round" xmlns:xlink="http://www.w3.org/1999/xlink" clip-rule="evenodd" viewBox="381 4936 26202 15000"><defs><style>.pcb-stackup_fr4 {color: #4D542C;} .pcb-stackup_cu {color: lightgrey;} .pcb-stackup_cf {color: goldenrod;} .pcb-stackup_sm {color: #2E0051; opacity: 0.9;} .pcb-stackup_ss {color: white;} .pcb-stackup_sp {color: #000000; opacity: 0;} .pcb-stackup_out {color: black;}</style><circle id="SJVoeRDg2g_pad-10" r="940"/><path id="SJVoeRDg2g_pad-11" d="M-1600-600h3200V600h-3200z"/><path id="SJVoeRDg2g_pad-12" d="M-500-2300H500v4600H-500z"/><path id="SJVoeRDg2g_pad-13" d="M-800-1700H800v3400H-800z"/><path id="SJVoeRDg2g_pad-14" d="M-600-600H600V600H-600z"/><circle id="SJVoeRDg2g_pad-16" r="343"/><circle id="SJVoeRDg2g_pad-10" r="940"/><path id="SJVoeRDg2g_pad-11" d="M-1600-600h3200V600h-3200z"/><path id="SJVoeRDg2g_pad-12" d="M-500-2300H500v4600H-500z"/><path id="SJVoeRDg2g_pad-13" d="M-800-1700H800v3400H-800z"/><path id="SJVoeRDg2g_pad-14" d="M-600-600H600V600H-600z"/><circle id="SJVoeRDg2g_pad-16" r="343"/><path id="ByBoe0Dlhg_pad-14" d="M-100-100h200v200h-200z"/><circle id="SJVoeRDg2g_pad-10" r="940"/><path id="SJVoeRDg2g_pad-11" d="M-1600-600h3200V600h-3200z"/><path id="SJVoeRDg2g_pad-12" d="M-500-2300H500v4600H-500z"/><path id="SJVoeRDg2g_pad-13" d="M-800-1700H800v3400H-800z"/><path id="SJVoeRDg2g_pad-14" d="M-600-600H600V600H-600z"/><circle id="SJVoeRDg2g_pad-16" r="343"/><circle id="SJVoeRDg2g_pad-10" r="940"/><path id="SJVoeRDg2g_pad-11" d="M-1600-600h3200V600h-3200z"/><path id="SJVoeRDg2g_pad-12" d="M-500-2300H500v4600H-500z"/><path id="SJVoeRDg2g_pad-13" d="M-800-1700H800v3400H-800z"/><path id="SJVoeRDg2g_pad-14" d="M-600-600H600V600H-600z"/><circle id="SJVoeRDg2g_pad-16" r="343"/><path id="ByBoe0Dlhg_pad-14" d="M-100-100h200v200h-200z"/><circle id="Hk8ieRDl2x_pad-10" r="1076"/><circle id="Hk8ieRDl2x_pad-11" r="1016"/><path id="Hk8ieRDl2x_pad-12" d="M-1676-676h3352V676h-3352z"/><path id="Hk8ieRDl2x_pad-13" d="M-576-2376H576v4752H-576z"/><path id="Hk8ieRDl2x_pad-14" d="M-876-1776H876v3552H-876z"/><path id="Hk8ieRDl2x_pad-15" d="M-676-676H676V676H-676z"/><circle id="Hk8ieRDl2x_pad-16" r="419"/><circle id="SJVoeRDg2g_pad-10" r="940"/><path id="SJVoeRDg2g_pad-11" d="M-1600-600h3200V600h-3200z"/><path id="SJVoeRDg2g_pad-12" d="M-500-2300H500v4600H-500z"/><path id="SJVoeRDg2g_pad-13" d="M-800-1700H800v3400H-800z"/><path id="SJVoeRDg2g_pad-14" d="M-600-600H600V600H-600z"/><circle id="SJVoeRDg2g_pad-16" r="343"/><circle id="SJVoeRDg2g_pad-10" r="940"/><path id="SJVoeRDg2g_pad-11" d="M-1600-600h3200V600h-3200z"/><path id="SJVoeRDg2g_pad-12" d="M-500-2300H500v4600H-500z"/><path id="SJVoeRDg2g_pad-13" d="M-800-1700H800v3400H-800z"/><path id="SJVoeRDg2g_pad-14" d="M-600-600H600V600H-600z"/><circle id="SJVoeRDg2g_pad-16" r="343"/><path id="ByBoe0Dlhg_pad-14" d="M-100-100h200v200h-200z"/><circle id="SJVoeRDg2g_pad-10" r="940"/><path id="SJVoeRDg2g_pad-11" d="M-1600-600h3200V600h-3200z"/><path id="SJVoeRDg2g_pad-12" d="M-500-2300H500v4600H-500z"/><path id="SJVoeRDg2g_pad-13" d="M-800-1700H800v3400H-800z"/><path id="SJVoeRDg2g_pad-14" d="M-600-600H600V600H-600z"/><circle id="SJVoeRDg2g_pad-16" r="343"/><circle id="SJVoeRDg2g_pad-10" r="940"/><path id="SJVoeRDg2g_pad-11" d="M-1600-600h3200V600h-3200z"/><path id="SJVoeRDg2g_pad-12" d="M-500-2300H500v4600H-500z"/><path id="SJVoeRDg2g_pad-13" d="M-800-1700H800v3400H-800z"/><path id="SJVoeRDg2g_pad-14" d="M-600-600H600V600H-600z"/><circle id="SJVoeRDg2g_pad-16" r="343"/><path id="ByBoe0Dlhg_pad-14" d="M-100-100h200v200h-200z"/><circle id="Hk8ieRDl2x_pad-10" r="1076"/><circle id="Hk8ieRDl2x_pad-11" r="1016"/><path id="Hk8ieRDl2x_pad-12" d="M-1676-676h3352V676h-3352z"/><path id="Hk8ieRDl2x_pad-13" d="M-576-2376H576v4752H-576z"/><path id="Hk8ieRDl2x_pad-14" d="M-876-1776H876v3552H-876z"/><path id="Hk8ieRDl2x_pad-15" d="M-676-676H676V676H-676z"/><circle id="Hk8ieRDl2x_pad-16" r="419"/><circle id="rkXoxCDl3x_pad-1" r="165.1"/><circle id="rkXoxCDl3x_pad-2" r="508"/><circle id="rkXoxCDl3x_pad-3" r="1000"/><circle id="SJVoeRDg2g_pad-10" r="940"/><path id="SJVoeRDg2g_pad-11" d="M-1600-600h3200V600h-3200z"/><path id="SJVoeRDg2g_pad-12" d="M-500-2300H500v4600H-500z"/><path id="SJVoeRDg2g_pad-13" d="M-800-1700H800v3400H-800z"/><path id="SJVoeRDg2g_pad-14" d="M-600-600H600V600H-600z"/><circle id="SJVoeRDg2g_pad-16" r="343"/><circle id="SJVoeRDg2g_pad-10" r="940"/><path id="SJVoeRDg2g_pad-11" d="M-1600-600h3200V600h-3200z"/><path id="SJVoeRDg2g_pad-12" d="M-500-2300H500v4600H-500z"/><path id="SJVoeRDg2g_pad-13" d="M-800-1700H800v3400H-800z"/><path id="SJVoeRDg2g_pad-14" d="M-600-600H600V600H-600z"/><circle id="SJVoeRDg2g_pad-16" r="343"/><path id="ByBoe0Dlhg_pad-14" d="M-100-100h200v200h-200z"/><circle id="SJVoeRDg2g_pad-10" r="940"/><path id="SJVoeRDg2g_pad-11" d="M-1600-600h3200V600h-3200z"/><path id="SJVoeRDg2g_pad-12" d="M-500-2300H500v4600H-500z"/><path id="SJVoeRDg2g_pad-13" d="M-800-1700H800v3400H-800z"/><path id="SJVoeRDg2g_pad-14" d="M-600-600H600V600H-600z"/><circle id="SJVoeRDg2g_pad-16" r="343"/><circle id="SJVoeRDg2g_pad-10" r="940"/><path id="SJVoeRDg2g_pad-11" d="M-1600-600h3200V600h-3200z"/><path id="SJVoeRDg2g_pad-12" d="M-500-2300H500v4600H-500z"/><path id="SJVoeRDg2g_pad-13" d="M-800-1700H800v3400H-800z"/><path id="SJVoeRDg2g_pad-14" d="M-600-600H600V600H-600z"/><circle id="SJVoeRDg2g_pad-16" r="343"/><path id="ByBoe0Dlhg_pad-14" d="M-100-100h200v200h-200z"/><circle id="Hk8ieRDl2x_pad-10" r="1076"/><circle id="Hk8ieRDl2x_pad-11" r="1016"/><path id="Hk8ieRDl2x_pad-12" d="M-1676-676h3352V676h-3352z"/><path id="Hk8ieRDl2x_pad-13" d="M-576-2376H576v4752H-576z"/><path id="Hk8ieRDl2x_pad-14" d="M-876-1776H876v3552H-876z"/><path id="Hk8ieRDl2x_pad-15" d="M-676-676H676V676H-676z"/><circle id="Hk8ieRDl2x_pad-16" r="419"/><circle id="SJVoeRDg2g_pad-10" r="940"/><path id="SJVoeRDg2g_pad-11" d="M-1600-600h3200V600h-3200z"/><path id="SJVoeRDg2g_pad-12" d="M-500-2300H500v4600H-500z"/><path id="SJVoeRDg2g_pad-13" d="M-800-1700H800v3400H-800z"/><path id="SJVoeRDg2g_pad-14" d="M-600-600H600V600H-600z"/><circle id="SJVoeRDg2g_pad-16" r="343"/><circle id="SJVoeRDg2g_pad-10" r="940"/><path id="SJVoeRDg2g_pad-11" d="M-1600-600h3200V600h-3200z"/><path id="SJVoeRDg2g_pad-12" d="M-500-2300H500v4600H-500z"/><path id="SJVoeRDg2g_pad-13" d="M-800-1700H800v3400H-800z"/><path id="SJVoeRDg2g_pad-14" d="M-600-600H600V600H-600z"/><circle id="SJVoeRDg2g_pad-16" r="343"/><path id="ByBoe0Dlhg_pad-14" d="M-100-100h200v200h-200z"/><circle id="SJVoeRDg2g_pad-10" r="940"/><path id="SJVoeRDg2g_pad-11" d="M-1600-600h3200V600h-3200z"/><path id="SJVoeRDg2g_pad-12" d="M-500-2300H500v4600H-500z"/><path id="SJVoeRDg2g_pad-13" d="M-800-1700H800v3400H-800z"/><path id="SJVoeRDg2g_pad-14" d="M-600-600H600V600H-600z"/><circle id="SJVoeRDg2g_pad-16" r="343"/><circle id="SJVoeRDg2g_pad-10" r="940"/><path id="SJVoeRDg2g_pad-11" d="M-1600-600h3200V600h-3200z"/><path id="SJVoeRDg2g_pad-12" d="M-500-2300H500v4600H-500z"/><path id="SJVoeRDg2g_pad-13" d="M-800-1700H800v3400H-800z"/><path id="SJVoeRDg2g_pad-14" d="M-600-600H600V600H-600z"/><circle id="SJVoeRDg2g_pad-16" r="343"/><path id="ByBoe0Dlhg_pad-14" d="M-100-100h200v200h-200z"/><circle id="Hk8ieRDl2x_pad-10" r="1076"/><circle id="Hk8ieRDl2x_pad-11" r="1016"/><path id="Hk8ieRDl2x_pad-12" d="M-1676-676h3352V676h-3352z"/><path id="Hk8ieRDl2x_pad-13" d="M-576-2376H576v4752H-576z"/><path id="Hk8ieRDl2x_pad-14" d="M-876-1776H876v3552H-876z"/><path id="Hk8ieRDl2x_pad-15" d="M-676-676H676V676H-676z"/><circle id="Hk8ieRDl2x_pad-16" r="419"/><circle id="rkXoxCDl3x_pad-1" r="165.1"/><circle id="rkXoxCDl3x_pad-2" r="508"/><circle id="rkXoxCDl3x_pad-3" r="1000"/><circle id="SJVoeRDg2g_pad-10" r="940"/><path id="SJVoeRDg2g_pad-11" d="M-1600-600h3200V600h-3200z"/><path id="SJVoeRDg2g_pad-12" d="M-500-2300H500v4600H-500z"/><path id="SJVoeRDg2g_pad-13" d="M-800-1700H800v3400H-800z"/><path id="SJVoeRDg2g_pad-14" d="M-600-600H600V600H-600z"/><circle id="SJVoeRDg2g_pad-16" r="343"/><circle id="SJVoeRDg2g_pad-10" r="940"/><path id="SJVoeRDg2g_pad-11" d="M-1600-600h3200V600h-3200z"/><path id="SJVoeRDg2g_pad-12" d="M-500-2300H500v4600H-500z"/><path id="SJVoeRDg2g_pad-13" d="M-800-1700H800v3400H-800z"/><path id="SJVoeRDg2g_pad-14" d="M-600-600H600V600H-600z"/><circle id="SJVoeRDg2g_pad-16" r="343"/><path id="ByBoe0Dlhg_pad-14" d="M-100-100h200v200h-200z"/><circle id="SJVoeRDg2g_pad-10" r="940"/><path id="SJVoeRDg2g_pad-11" d="M-1600-600h3200V600h-3200z"/><path id="SJVoeRDg2g_pad-12" d="M-500-2300H500v4600H-500z"/><path id="SJVoeRDg2g_pad-13" d="M-800-1700H800v3400H-800z"/><path id="SJVoeRDg2g_pad-14" d="M-600-600H600V600H-600z"/><circle id="SJVoeRDg2g_pad-16" r="343"/><circle id="SJVoeRDg2g_pad-10" r="940"/><path id="SJVoeRDg2g_pad-11" d="M-1600-600h3200V600h-3200z"/><path id="SJVoeRDg2g_pad-12" d="M-500-2300H500v4600H-500z"/><path id="SJVoeRDg2g_pad-13" d="M-800-1700H800v3400H-800z"/><path id="SJVoeRDg2g_pad-14" d="M-600-600H600V600H-600z"/><circle id="SJVoeRDg2g_pad-16" r="343"/><path id="ByBoe0Dlhg_pad-14" d="M-100-100h200v200h-200z"/><circle id="Hk8ieRDl2x_pad-10" r="1076"/><circle id="Hk8ieRDl2x_pad-11" r="1016"/><path id="Hk8ieRDl2x_pad-12" d="M-1676-676h3352V676h-3352z"/><path id="Hk8ieRDl2x_pad-13" d="M-576-2376H576v4752H-576z"/><path id="Hk8ieRDl2x_pad-14" d="M-876-1776H876v3552H-876z"/><path id="Hk8ieRDl2x_pad-15" d="M-676-676H676V676H-676z"/><circle id="Hk8ieRDl2x_pad-16" r="419"/><circle id="SJVoeRDg2g_pad-10" r="940"/><path id="SJVoeRDg2g_pad-11" d="M-1600-600h3200V600h-3200z"/><path id="SJVoeRDg2g_pad-12" d="M-500-2300H500v4600H-500z"/><path id="SJVoeRDg2g_pad-13" d="M-800-1700H800v3400H-800z"/><path id="SJVoeRDg2g_pad-14" d="M-600-600H600V600H-600z"/><circle id="SJVoeRDg2g_pad-16" r="343"/><circle id="SJVoeRDg2g_pad-10" r="940"/><path id="SJVoeRDg2g_pad-11" d="M-1600-600h3200V600h-3200z"/><path id="SJVoeRDg2g_pad-12" d="M-500-2300H500v4600H-500z"/><path id="SJVoeRDg2g_pad-13" d="M-800-1700H800v3400H-800z"/><path id="SJVoeRDg2g_pad-14" d="M-600-600H600V600H-600z"/><circle id="SJVoeRDg2g_pad-16" r="343"/><path id="ByBoe0Dlhg_pad-14" d="M-100-100h200v200h-200z"/><circle id="SJVoeRDg2g_pad-10" r="940"/><path id="SJVoeRDg2g_pad-11" d="M-1600-600h3200V600h-3200z"/><path id="SJVoeRDg2g_pad-12" d="M-500-2300H500v4600H-500z"/><path id="SJVoeRDg2g_pad-13" d="M-800-1700H800v3400H-800z"/><path id="SJVoeRDg2g_pad-14" d="M-600-600H600V600H-600z"/><circle id="SJVoeRDg2g_pad-16" r="343"/><circle id="SJVoeRDg2g_pad-10" r="940"/><path id="SJVoeRDg2g_pad-11" d="M-1600-600h3200V600h-3200z"/><path id="SJVoeRDg2g_pad-12" d="M-500-2300H500v4600H-500z"/><path id="SJVoeRDg2g_pad-13" d="M-800-1700H800v3400H-800z"/><path id="SJVoeRDg2g_pad-14" d="M-600-600H600V600H-600z"/><circle id="SJVoeRDg2g_pad-16" r="343"/><path id="ByBoe0Dlhg_pad-14" d="M-100-100h200v200h-200z"/><circle id="Hk8ieRDl2x_pad-10" r="1076"/><circle id="Hk8ieRDl2x_pad-11" r="1016"/><path id="Hk8ieRDl2x_pad-12" d="M-1676-676h3352V676h-3352z"/><path id="Hk8ieRDl2x_pad-13" d="M-576-2376H576v4752H-576z"/><path id="Hk8ieRDl2x_pad-14" d="M-876-1776H876v3552H-876z"/><path id="Hk8ieRDl2x_pad-15" d="M-676-676H676V676H-676z"/><circle id="Hk8ieRDl2x_pad-16" r="419"/><circle id="rkXoxCDl3x_pad-1" r="165.1"/><circle id="rkXoxCDl3x_pad-2" r="508"/><circle id="rkXoxCDl3x_pad-3" r="1000"/><circle id="SJVoeRDg2g_pad-10" r="940"/><path id="SJVoeRDg2g_pad-11" d="M-1600-600h3200V600h-3200z"/><path id="SJVoeRDg2g_pad-12" d="M-500-2300H500v4600H-500z"/><path id="SJVoeRDg2g_pad-13" d="M-800-1700H800v3400H-800z"/><path id="SJVoeRDg2g_pad-14" d="M-600-600H600V600H-600z"/><circle id="SJVoeRDg2g_pad-16" r="343"/><circle id="SJVoeRDg2g_pad-10" r="940"/><path id="SJVoeRDg2g_pad-11" d="M-1600-600h3200V600h-3200z"/><path id="SJVoeRDg2g_pad-12" d="M-500-2300H500v4600H-500z"/><path id="SJVoeRDg2g_pad-13" d="M-800-1700H800v3400H-800z"/><path id="SJVoeRDg2g_pad-14" d="M-600-600H600V600H-600z"/><circle id="SJVoeRDg2g_pad-16" r="343"/><path id="ByBoe0Dlhg_pad-14" d="M-100-100h200v200h-200z"/><circle id="SJVoeRDg2g_pad-10" r="940"/><path id="SJVoeRDg2g_pad-11" d="M-1600-600h3200V600h-3200z"/><path id="SJVoeRDg2g_pad-12" d="M-500-2300H500v4600H-500z"/><path id="SJVoeRDg2g_pad-13" d="M-800-1700H800v3400H-800z"/><path id="SJVoeRDg2g_pad-14" d="M-600-600H600V600H-600z"/><circle id="SJVoeRDg2g_pad-16" r="343"/><circle id="SJVoeRDg2g_pad-10" r="940"/><path id="SJVoeRDg2g_pad-11" d="M-1600-600h3200V600h-3200z"/><path id="SJVoeRDg2g_pad-12" d="M-500-2300H500v4600H-500z"/><path id="SJVoeRDg2g_pad-13" d="M-800-1700H800v3400H-800z"/><path id="SJVoeRDg2g_pad-14" d="M-600-600H600V600H-600z"/><circle id="SJVoeRDg2g_pad-16" r="343"/><path id="ByBoe0Dlhg_pad-14" d="M-100-100h200v200h-200z"/><circle id="Hk8ieRDl2x_pad-10" r="1076"/><circle id="Hk8ieRDl2x_pad-11" r="1016"/><path id="Hk8ieRDl2x_pad-12" d="M-1676-676h3352V676h-3352z"/><path id="Hk8ieRDl2x_pad-13" d="M-576-2376H576v4752H-576z"/><path id="Hk8ieRDl2x_pad-14" d="M-876-1776H876v3552H-876z"/><path id="Hk8ieRDl2x_pad-15" d="M-676-676H676V676H-676z"/><circle id="Hk8ieRDl2x_pad-16" r="419"/><circle id="SJVoeRDg2g_pad-10" r="940"/><path id="SJVoeRDg2g_pad-11" d="M-1600-600h3200V600h-3200z"/><path id="SJVoeRDg2g_pad-12" d="M-500-2300H500v4600H-500z"/><path id="SJVoeRDg2g_pad-13" d="M-800-1700H800v3400H-800z"/><path id="SJVoeRDg2g_pad-14" d="M-600-600H600V600H-600z"/><circle id="SJVoeRDg2g_pad-16" r="343"/><circle id="SJVoeRDg2g_pad-10" r="940"/><path id="SJVoeRDg2g_pad-11" d="M-1600-600h3200V600h-3200z"/><path id="SJVoeRDg2g_pad-12" d="M-500-2300H500v4600H-500z"/><path id="SJVoeRDg2g_pad-13" d="M-800-1700H800v3400H-800z"/><path id="SJVoeRDg2g_pad-14" d="M-600-600H600V600H-600z"/><circle id="SJVoeRDg2g_pad-16" r="343"/><path id="ByBoe0Dlhg_pad-14" d="M-100-100h200v200h-200z"/><circle id="SJVoeRDg2g_pad-10" r="940"/><path id="SJVoeRDg2g_pad-11" d="M-1600-600h3200V600h-3200z"/><path id="SJVoeRDg2g_pad-12" d="M-500-2300H500v4600H-500z"/><path id="SJVoeRDg2g_pad-13" d="M-800-1700H800v3400H-800z"/><path id="SJVoeRDg2g_pad-14" d="M-600-600H600V600H-600z"/><circle id="SJVoeRDg2g_pad-16" r="343"/><circle id="SJVoeRDg2g_pad-10" r="940"/><path id="SJVoeRDg2g_pad-11" d="M-1600-600h3200V600h-3200z"/><path id="SJVoeRDg2g_pad-12" d="M-500-2300H500v4600H-500z"/><path id="SJVoeRDg2g_pad-13" d="M-800-1700H800v3400H-800z"/><path id="SJVoeRDg2g_pad-14" d="M-600-600H600V600H-600z"/><circle id="SJVoeRDg2g_pad-16" r="343"/><path id="ByBoe0Dlhg_pad-14" d="M-100-100h200v200h-200z"/><circle id="Hk8ieRDl2x_pad-10" r="1076"/><circle id="Hk8ieRDl2x_pad-11" r="1016"/><path id="Hk8ieRDl2x_pad-12" d="M-1676-676h3352V676h-3352z"/><path id="Hk8ieRDl2x_pad-13" d="M-576-2376H576v4752H-576z"/><path id="Hk8ieRDl2x_pad-14" d="M-876-1776H876v3552H-876z"/><path id="Hk8ieRDl2x_pad-15" d="M-676-676H676V676H-676z"/><circle id="Hk8ieRDl2x_pad-16" r="419"/><circle id="rkXoxCDl3x_pad-1" r="165.1"/><circle id="rkXoxCDl3x_pad-2" r="508"/><circle id="rkXoxCDl3x_pad-3" r="1000"/><g id="pcb-stackup_top_cu"><use x="24377" y="10141" xlink:href="#SJVoeRDg2g_pad-10"/><use x="21837" y="10141" xlink:href="#SJVoeRDg2g_pad-10"/><use x="24377" y="12681" xlink:href="#SJVoeRDg2g_pad-10"/><use x="21837" y="12681" xlink:href="#SJVoeRDg2g_pad-10"/><use x="24377" y="15221" xlink:href="#SJVoeRDg2g_pad-10"/><use x="21837" y="15221" xlink:href="#SJVoeRDg2g_pad-10"/><use x="11592" y="18214" xlink:href="#SJVoeRDg2g_pad-10"/><use x="14132" y="18214" xlink:href="#SJVoeRDg2g_pad-10"/><use x="16672" y="18214" xlink:href="#SJVoeRDg2g_pad-10"/><use x="19212" y="18214" xlink:href="#SJVoeRDg2g_pad-10"/><use x="11415" y="7445" xlink:href="#SJVoeRDg2g_pad-10"/><use x="13955" y="7445" xlink:href="#SJVoeRDg2g_pad-10"/><use x="16495" y="7445" xlink:href="#SJVoeRDg2g_pad-10"/><use x="19035" y="7445" xlink:href="#SJVoeRDg2g_pad-10"/><use x="11681" y="14636" xlink:href="#SJVoeRDg2g_pad-11"/><use x="18481" y="14636" xlink:href="#SJVoeRDg2g_pad-11"/><use x="18481" y="10636" xlink:href="#SJVoeRDg2g_pad-11"/><use x="11681" y="10636" xlink:href="#SJVoeRDg2g_pad-11"/><use x="6081" y="12036" xlink:href="#SJVoeRDg2g_pad-12"/><use x="4081" y="12036" xlink:href="#SJVoeRDg2g_pad-12"/><use x="8481" y="6836" xlink:href="#SJVoeRDg2g_pad-13"/><use x="1681" y="6836" xlink:href="#SJVoeRDg2g_pad-13"/><use x="5131" y="17436" xlink:href="#SJVoeRDg2g_pad-14"/><use x="7231" y="17436" xlink:href="#SJVoeRDg2g_pad-14"/><path fill="none" stroke-width="152" d="M16545 7546h915l2133 2134h458l609 610v457l762 762h1829l1067 1067m-7773-5030l-50-101m7823 5131l59 105m-5850-1934l-153 152-1314 915m1467-1067l-46-111m6942-2523l766 767v4153l-914 914m-3853 0h3853m-3853 0l-3048-3048 107-263m-6660 111h4572l667 1067m-5239-1067l-140-111m4991 7578h788l1676-1676h3048l915-914v-1677M5268 12880v4420m0-4420l762-762m-762 5182l-137 136m899-5318l51-82m12446 2673h2743l457 457m-3200-457l-46-73m3246 530l110 55m-10016 707v-1219m0 1219l2286 2286m-2286-3505l-140-73m2426 3578h25m4242-3505h-609l-3506 3505m4115-3505l107-73m-4222 3578h-127m-8864-3352h6553l-140-226m-7480-2518v5944l305 305h6858l152-153m-7315-6096l-120-82m7435 6178h76m10135-8077V8461l-2286-2286h-8534L9535 7546v1067l-762 762H5573l-1372 1372v1219m17526-1829l110 4M4201 11966l-120 70m4997 3435l-1829 1829m2286-3048l2286-2286h2591m-7163 5334l-18 136"/><use x="17060" y="11814" xlink:href="#SJVoeRDg2g_pad-16"/><use x="25423" y="8113" xlink:href="#SJVoeRDg2g_pad-16"/><use x="9078" y="15471" xlink:href="#SJVoeRDg2g_pad-16"/><use x="9535" y="14252" xlink:href="#SJVoeRDg2g_pad-16"/><use x="14412" y="11966" xlink:href="#SJVoeRDg2g_pad-16"/></g><g id="pcb-stackup_top_ss"><path fill="none" stroke-width="51" d="M3362 10712l94 93v93l-94 93h-466m0-93v187m94 561l-94-93v-187l94-93h93l93 93v187l93 93h93l94-93v-187l-94-93m94 748h-560m0 186v-373m280 562v373m-280 561v-373h280l-93 186v94l93 93h186l94-93v-187l-94-93m-466 561h373l187 187-187 186h-373m11233-3063l-93 93h-186l-94-93v-93l94-94h186l93-93v-93l-93-93h-186l-94 93m562 280v-280l93-93 93 93 93-93 94 93v280m188 0h93v-373m-93 0h186m-93 559v93m374-186v-373l94-93m0 373h-187m747 0h-279l-94-94v-186l94-93h279m189 0v559m0-280l93 94h186l94-94v-279m5794-2350h187m-93 0v559m93 0h-187m747-93l-93 93h-186l-93-93v-373l93-93h186l93 93m562 373l-93 93h-187l-93-93v-93l93-94h187l93-93v-93l-93-93h-187l-93 93m561-93v559h280l93-93v-187l-93-93h-280m-12474 8523h-373v-280l187 94h93l93-94v-186l-93-93h-186l-94 93m562 466v-373l186-186 187 186v373m1838-93l-93 93h-186l-94-93v-373l94-93h186l93 93v186h-186m375-279v559l373-559v559m188 0v-559h280l93 93v373l-93 93h-280m1477-559v559h280l93-93v-187l-93-93h-280m187 0l186-186m562 466l-94 93h-186l-93-93v-93l93-94h186l94-93v-93l-94-93h-186l-93 93m747-93v559m-186 0h373m784-559v559l-280-280h373m189-279l373 559m188 0v-559h373m561 559h-373v-559h373m-186 279h-187m562 280v-559h279l93 93v373l-93 93h-279M11206 5455v373l94 93h186l93-93v-373l-93-93h-186l-94 93 373 373m2227-93l187 186v-559m186 0h-373m2973 0h-373l373 373v93l-93 93h-186l-94-93m2600 0l94 93h186l93-93v-93l-93-94h-93m93 0l93-93v-93l-93-93h-186l-94 93"/><path fill="none" stroke-width="25" d="M5844 16786v-280h186m281 280h-187v-280h187m-93 140h-94m281 140v-280h140l46 47v186l-46 47h-140m4389-7837v280l93-93 93 93v-280m234 280h-93l-47-47v-186l47-47h93l47 47v186l-47 47m327-47l-46 47h-93l-47-47v-46l47-47h93l46-47v-46l-46-47h-93l-47 47m281-47h93m-47 0v280m-46 0h93m1665-280v280l93-93 93 93v-280m94 0h94m-47 0v280m-47 0h94m280-47l-47 47h-93l-47-47v-46l47-47h93l47-47v-46l-47-47h-93l-47 47m421 233h-93l-47-47v-186l47-47h93l47 47v186l-47 47m2098-47l-46 47h-94l-46-47v-46l46-47h94l46-47v-46l-46-47h-94l-46 47m467 186l-47 47h-93l-47-47v-186l47-47h93l47 47m94-47v280m186 0l-186-187m47 47l139-140"/><path fill="none" stroke-width="76" d="M21418 16781h615l123 123v245l-123 123h-615m0 257h738v369l-123 123h-492l-123-123v-369m0 749l738 491m0-491l-738 491m123 749l-123-123v-246l123-123h123l123 123v246l123 123h123l123-123v-246l-123-123m-18314-452v628l314 313 313-313v-628m0 471h-627m936 157v-628m0 314l313 314h157m936 313v-941h-470l-157 157v314l157 157h470m309 0v-471l156-157h471v628m308 0h157v-628m-157 0h314m-157 941v157m624-314v-627l156-157m0 628h-313m624-628h470l157 157-157 157h-314l-156 157 156 157h471m308 0v-471l157-157h470m0 628v-784l-157-157h-156"/><path fill="none" stroke-width="203" d="M25012 8871l635 635m0 1270l-635 635 635 635m0 1270l-635 635 635 635m0 1270l-635 635m0-7620h-3810l-635 635v1270l635 635-635 635v1270l635 635-635 635v1270l635 635m0-5080h3810m0 2540h-3810m0 2540h3810m635-635v-1270m0-1270v-1270m0-1270V9506m335 0v1270m-7405 8708h1270l635-635m0-1270l-635-635m-4445 1905l635 635h1270l635-635m0-1270l-635-635h-1270l-635 635m2540 1270l635 635m-635-1905l635-635h1270m-8890 2540h1270l635-635m0-1270l-635-635m635 1905l635 635h1270l635-635m0-1270l-635-635h-1270l-635 635m-2540 0v1270l635 635m-635-1905l635-635h1270m8255 635v1270M18400 8715h1270l635-635m0-1270l-635-635m-4445 1905l635 635h1270l635-635m0-1270l-635-635h-1270l-635 635m2540 1270l635 635m-635-1905l635-635h1270m-8890 2540h1270l635-635m0-1270l-635-635m635 1905l635 635h1270l635-635m0-1270l-635-635h-1270l-635 635m-2540 0v1270l635 635m-635-1905l635-635h1270m8255 635v1270m-1924 7556h-6600m0-6000h6600m-6600 1800v2400m6600 0v-2400m-4803 1200l2 77 6 78 10 76 14 76 18 76 21 74 26 73 29 72 33 70 36 68 40 67 43 64 46 62 50 59 53 57 55 54 58 51 61 48 63 45 65 42 68 38 69 34 71 31 72 28 74 23 75 20 76 16 76 12 77 8 77 4h78l77-4 77-8 76-12 76-16 75-20 74-23 72-28 71-31 69-34 68-38 65-42 63-45 61-48 58-51 55-54 53-57 50-59 46-62 43-64 40-67 36-68 33-70 29-72 26-73 21-74 18-76 14-76 10-76 6-78 2-77-2-77-6-78-10-76-14-76-18-76-21-74-26-73-29-72-33-70-36-68-40-67-43-64-46-62-50-59-53-57-55-54-58-51-61-48-63-45-65-42-68-38-69-34-71-31-72-28-74-23-75-20-76-16-76-12-77-8-77-4h-78l-77 4-77 8-76 12-76 16-75 20-74 23-72 28-71 31-69 34-68 38-65 42-63 45-61 48-58 51-55 54-53 57-50 59-46 62-43 64-40 67-36 68-33 70-29 72-26 73-21 74-18 76-14 76-10 76-6 78-2 77m503 0l2 63 6 62 10 62 13 62 18 60 21 59 25 58 29 56 32 54 35 52 38 49 42 48 44 44 48 42 49 38 52 35 54 32 56 29 58 25 59 21 60 18 62 13 62 10 62 6 63 2 63-2 62-6 62-10 62-13 60-18 59-21 58-25 56-29 54-32 52-35 49-38 48-42 44-44 42-48 38-49 35-52 32-54 29-56 25-58 21-59 18-60 13-62 10-62 6-62 2-63-2-63-6-62-10-62-13-62-18-60-21-59-25-58-29-56-32-54-35-52-38-49-42-48-44-44-48-42-49-38-52-35-54-32-56-29-58-25-59-21-60-18-62-13-62-10-62-6-63-2-63 2-62 6-62 10-62 13-60 18-59 21-58 25-56 29-54 32-52 35-49 38-48 42-44 44-42 48-38 49-35 52-32 54-29 56-25 58-21 59-18 60-13 62-10 62-6 62-2 63M7331 5336H2831M1081 8836v4000h850v-2500h1400m3500 0h1400v2500h850V8836"/><use x="6081" y="17436" xlink:href="#ByBoe0Dlhg_pad-14"/></g><g id="pcb-stackup_top_sm"><use x="2581" y="18136" xlink:href="#Hk8ieRDl2x_pad-10"/><use x="23581" y="18136" xlink:href="#Hk8ieRDl2x_pad-10"/><use x="23781" y="6736" xlink:href="#Hk8ieRDl2x_pad-10"/><use x="24377" y="10141" xlink:href="#Hk8ieRDl2x_pad-11"/><use x="21837" y="10141" xlink:href="#Hk8ieRDl2x_pad-11"/><use x="24377" y="12681" xlink:href="#Hk8ieRDl2x_pad-11"/><use x="21837" y="12681" xlink:href="#Hk8ieRDl2x_pad-11"/><use x="24377" y="15221" xlink:href="#Hk8ieRDl2x_pad-11"/><use x="21837" y="15221" xlink:href="#Hk8ieRDl2x_pad-11"/><use x="11592" y="18214" xlink:href="#Hk8ieRDl2x_pad-11"/><use x="14132" y="18214" xlink:href="#Hk8ieRDl2x_pad-11"/><use x="16672" y="18214" xlink:href="#Hk8ieRDl2x_pad-11"/><use x="19212" y="18214" xlink:href="#Hk8ieRDl2x_pad-11"/><use x="11415" y="7445" xlink:href="#Hk8ieRDl2x_pad-11"/><use x="13955" y="7445" xlink:href="#Hk8ieRDl2x_pad-11"/><use x="16495" y="7445" xlink:href="#Hk8ieRDl2x_pad-11"/><use x="19035" y="7445" xlink:href="#Hk8ieRDl2x_pad-11"/><use x="11681" y="14636" xlink:href="#Hk8ieRDl2x_pad-12"/><use x="18481" y="14636" xlink:href="#Hk8ieRDl2x_pad-12"/><use x="18481" y="10636" xlink:href="#Hk8ieRDl2x_pad-12"/><use x="11681" y="10636" xlink:href="#Hk8ieRDl2x_pad-12"/><use x="6081" y="12036" xlink:href="#Hk8ieRDl2x_pad-13"/><use x="4081" y="12036" xlink:href="#Hk8ieRDl2x_pad-13"/><use x="8481" y="6836" xlink:href="#Hk8ieRDl2x_pad-14"/><use x="1681" y="6836" xlink:href="#Hk8ieRDl2x_pad-14"/><use x="5131" y="17436" xlink:href="#Hk8ieRDl2x_pad-15"/><use x="7231" y="17436" xlink:href="#Hk8ieRDl2x_pad-15"/><use x="17060" y="11814" xlink:href="#Hk8ieRDl2x_pad-16"/><use x="25423" y="8113" xlink:href="#Hk8ieRDl2x_pad-16"/><use x="9078" y="15471" xlink:href="#Hk8ieRDl2x_pad-16"/><use x="9535" y="14252" xlink:href="#Hk8ieRDl2x_pad-16"/><use x="14412" y="11966" xlink:href="#Hk8ieRDl2x_pad-16"/></g><g id="pcb-stackup_top_drl1"><use x="17060" y="11814" xlink:href="#rkXoxCDl3x_pad-1"/><use x="25423" y="8113" xlink:href="#rkXoxCDl3x_pad-1"/><use x="9078" y="15471" xlink:href="#rkXoxCDl3x_pad-1"/><use x="9535" y="14252" xlink:href="#rkXoxCDl3x_pad-1"/><use x="14412" y="11966" xlink:href="#rkXoxCDl3x_pad-1"/><use x="24377" y="10141" xlink:href="#rkXoxCDl3x_pad-2"/><use x="21837" y="10141" xlink:href="#rkXoxCDl3x_pad-2"/><use x="24377" y="12681" xlink:href="#rkXoxCDl3x_pad-2"/><use x="21837" y="12681" xlink:href="#rkXoxCDl3x_pad-2"/><use x="24377" y="15221" xlink:href="#rkXoxCDl3x_pad-2"/><use x="21837" y="15221" xlink:href="#rkXoxCDl3x_pad-2"/><use x="11592" y="18214" xlink:href="#rkXoxCDl3x_pad-2"/><use x="14132" y="18214" xlink:href="#rkXoxCDl3x_pad-2"/><use x="16672" y="18214" xlink:href="#rkXoxCDl3x_pad-2"/><use x="19212" y="18214" xlink:href="#rkXoxCDl3x_pad-2"/><use x="11415" y="7445" xlink:href="#rkXoxCDl3x_pad-2"/><use x="13955" y="7445" xlink:href="#rkXoxCDl3x_pad-2"/><use x="16495" y="7445" xlink:href="#rkXoxCDl3x_pad-2"/><use x="19035" y="7445" xlink:href="#rkXoxCDl3x_pad-2"/><use x="2581" y="18136" xlink:href="#rkXoxCDl3x_pad-3"/><use x="23581" y="18136" xlink:href="#rkXoxCDl3x_pad-3"/><use x="23781" y="6736" xlink:href="#rkXoxCDl3x_pad-3"/></g><clipPath id="pcb-stackup_top_out"><path fill="none" stroke-width="254" d="M26581 15536l1 130-3 130-7 130-10 129-15 129-19 129-22 128-26 127-30 126-34 126-38 124-41 123-45 122-49 121-52 118-56 118-60 115-63 114-66 112-69 109-73 108-77 105-79 103-82 100-86 98-88 96-91 92-94 90-96 87-99 84-102 81-104 78-106 75-109 71-111 68-112 65-115 61-116 58-118 54-120 51-121 47-122 43-124 40-125 36-126 32-127 28-127 25-128 20-129 17-130 13-129 9-130 5H2181L381 18136V4936h23000l113 5 112 9 112 13 111 17 111 20 110 25 110 28 108 32 107 35 106 40 104 42 103 47 101 49 99 54 98 56 95 60 94 63 91 66 89 70 86 72 84 75 82 78 79 81 75 83 73 86 70 89 67 90 64 93 61 95 57 98 54 99 50 100 48 103 43 104 40 105 36 107 33 108 29 109 25 110 22 110 17 112 14 112 10 112 7 113 2 112-2 113v7200M1581 18136l2 63 6 62 10 62 13 62 18 60 21 59 25 58 29 56 32 54 35 52 38 49 42 48 44 44 48 42 49 38 52 35 54 32 56 29 58 25 59 21 60 18 62 13 62 10 62 6 63 2 63-2 62-6 62-10 62-13 60-18 59-21 58-25 56-29 54-32 52-35 49-38 48-42 44-44 42-48 38-49 35-52 32-54 29-56 25-58 21-59 18-60 13-62 10-62 6-62 2-63-2-63-6-62-10-62-13-62-18-60-21-59-25-58-29-56-32-54-35-52-38-49-42-48-44-44-48-42-49-38-52-35-54-32-56-29-58-25-59-21-60-18-62-13-62-10-62-6-63-2-63 2-62 6-62 10-62 13-60 18-59 21-58 25-56 29-54 32-52 35-49 38-48 42-44 44-42 48-38 49-35 52-32 54-29 56-25 58-21 59-18 60-13 62-10 62-6 62-2 63m21000 0l2 63 6 62 10 62 13 62 18 60 21 59 25 58 29 56 32 54 35 52 38 49 42 48 44 44 48 42 49 38 52 35 54 32 56 29 58 25 59 21 60 18 62 13 62 10 62 6 63 2 63-2 62-6 62-10 62-13 60-18 59-21 58-25 56-29 54-32 52-35 49-38 48-42 44-44 42-48 38-49 35-52 32-54 29-56 25-58 21-59 18-60 13-62 10-62 6-62 2-63-2-63-6-62-10-62-13-62-18-60-21-59-25-58-29-56-32-54-35-52-38-49-42-48-44-44-48-42-49-38-52-35-54-32-56-29-58-25-59-21-60-18-62-13-62-10-62-6-63-2-63 2-62 6-62 10-62 13-60 18-59 21-58 25-56 29-54 32-52 35-49 38-48 42-44 44-42 48-38 49-35 52-32 54-29 56-25 58-21 59-18 60-13 62-10 62-6 62-2 63m200-11400l2 63 6 62 10 62 13 62 18 60 21 59 25 58 29 56 32 54 35 52 38 49 42 48 44 44 48 42 49 38 52 35 54 32 56 29 58 25 59 21 60 18 62 13 62 10 62 6 63 2 63-2 62-6 62-10 62-13 60-18 59-21 58-25 56-29 54-32 52-35 49-38 48-42 44-44 42-48 38-49 35-52 32-54 29-56 25-58 21-59 18-60 13-62 10-62 6-62 2-63-2-63-6-62-10-62-13-62-18-60-21-59-25-58-29-56-32-54-35-52-38-49-42-48-44-44-48-42-49-38-52-35-54-32-56-29-58-25-59-21-60-18-62-13-62-10-62-6-63-2-63 2-62 6-62 10-62 13-60 18-59 21-58 25-56 29-54 32-52 35-49 38-48 42-44 44-42 48-38 49-35 52-32 54-29 56-25 58-21 59-18 60-13 62-10 62-6 62-2 63"/></clipPath><mask id="pcb-stackup_top_mech-mask"><g stroke="#000"><path fill="#fff" d="M381 4936h26202v15000H381z"/><use xlink:href="#pcb-stackup_top_drl1"/><use xlink:href="#pcb-stackup_top_drl2"/></g></mask><mask id="pcb-stackup_top_cf-mask"><g fill="#fff" stroke="#fff"><use xlink:href="#pcb-stackup_top_sm"/></g></mask><mask id="pcb-stackup_top_sm-mask"><g stroke="#000"><path fill="#fff" d="M381 4936h26202v15000H381z"/><use xlink:href="#pcb-stackup_top_sm"/></g></mask></defs><g><g mask="url(#pcb-stackup_top_mech-mask)" clip-path="url(#pcb-stackup_top_out)" transform="matrix(1 0 0 -1 0 24872)"><path fill="currentColor" d="M381 4936h26202v15000H381z" class="pcb-stackup_fr4"/><use fill="currentColor" stroke="currentColor" xlink:href="#pcb-stackup_top_cu" class="pcb-stackup_cu"/><use fill="currentColor" stroke="currentColor" xlink:href="#pcb-stackup_top_cu" class="pcb-stackup_cf" mask="url(#pcb-stackup_top_cf-mask)"/><g mask="url(#pcb-stackup_top_sm-mask)"><path fill="currentColor" d="M381 4936h26202v15000H381z" class="pcb-stackup_sm"/><use fill="currentColor" stroke="currentColor" xlink:href="#pcb-stackup_top_ss" class="pcb-stackup_ss"/></g></g></g></svg>